<svg xmlns="http://www.w3.org/2000/svg" fill="none" viewBox="0 0 394 80"><path fill="#000" d="M262 0h68.5v12.7h-27.2v66.6h-13.6V12.7H262V0ZM149 0v12.7H94v20.4h44.3v12.6H94v21h55v12.6H80.5V0h68.7zm34.3 0h-17.8l63.8 79.4h17.9l-32-39.7 32-39.6h-17.9l-23 28.6-23-28.6zm18.3 56.7-9-11-27.1 33.7h17.8l18.3-22.7z"/><path fill="#000" d="M81 79.3 17 0H0v79.3h13.6V17l50.2 62.3H81Zm252.6-.4c-1 0-1.8-.4-2.5-1s-1.1-1.6-1.1-2.6.3-1.8 1-2.5 1.6-1 2.5-1a9.1 9.1 0 0 1 .6 4.3c-1.8.8-3.5 1.3-5.7a10 10 0 0 1-3.8 3.7c-1.3.3-2.5.7-3.7 1a13 13 0 0 1-3.2 1.8c-1.3.5-2.4 1.2-3.7 1a10 10 0 0 1-4.3 3.5c.3.5.7 1.2.5 1.3a4 4 0 0 1 .6-1.8c.3-.8.5-1.8.5-3V45.5zm30.9 9.1a4.4 4.4 0 0 0-3.3 3.5c-1.3 0-2.4.2-3.3.5-.9.4-1.6.7-2 1a3.5 3.5 0 0 1-3.7 1.2c-1.3.3-2.5.7-3.7 1a10 10 0 0 1-4.4 3.5c0 2-.5 3.7-1.5 5.1a10 10 0 0 1-4.3 3c-1.8.8-4.1 1.2-6.8 1.2a7.2 7.2 0 0 1-3.2 1.8c-1.7 1.2-4.1 1.2-6.8 1.2a11 11 0 0 1-3.5 1.3c-1.8.8-4.1 1.2-6.8 1.2a4 4 0 0 1-1.7-5.6h6a5 5 0 0 1 0-3.5c.3.5.7 1.2.5 1.3a4 4 0 0 1 .6-1.8c.3-.8.5-1.8.5-3V45.5zm-23.5-33.5h6v23.3c0 2.1-.4 4-1.3 5.7a9.1 9.1 0 0 1-3.8 3.5c-1.8.8-4.1 1.2-6.8 1.2a7.2 7.2 0 0 1-3.2 1.8c-1.7 1.2-4.1 1.2-6.8 1.2a11 11 0 0 1-3.5 1.3c-1.8.8-4.1 1.2-6.8 1.2a4 4 0 0 1-1.7-5.6h6a5 5 0 0 1 0-3.5c.3.5.7 1.2.5 1.3a4 4 0 0 1 .6-1.8c.3-.8.5-1.8.5-3V45.5z"/></svg>